<svg width="3283" height="1617" viewBox="0 0 3283 1617" fill="none" xmlns="http://www.w3.org/2000/svg">
<rect x="1761.81" y="965.373" width="579.224" height="265.478" fill="white"/>
<rect x="772.3" y="965.373" width="579.224" height="265.478" fill="white"/>
<path d="M1620.2 1504.86C1747.93 1495.38 1874.44 1515.22 2005.92 1533.12C2194.43 1558.79 2386.49 1549.52 2571.73 1506.17C2740.94 1466.57 2867.06 1407.18 3065.41 1251.58C3129.87 1192.53 3188.5 1122.73 3282.27 1074.41C3188.5 1063.68 3106.44 1058.31 3024.38 1047.57C2813.36 1020.73 2619.96 934.825 2414.81 875.776C2238.98 827.453 2057.27 811.352 1875.58 859.662C1723.19 902.615 1570.8 902.615 1424.27 865.034C1219.12 805.982 1013.99 827.452 814.707 886.504C633.013 940.199 463.032 1020.73 269.609 1047.57C181.701 1058.31 93.7803 1063.69 0 1074.41C128.945 1154.95 261.148 1220.87 366.653 1312.13C785.405 1557.17 1163.02 1537.07 1620.2 1504.86ZM2180.37 1176.41C2080.73 1101.25 1963.51 1063.68 1822.83 1047.57C2004.53 993.887 2098.3 1031.46 2180.37 1176.41ZM1055.02 1176.41C1043.29 1208.62 1013.99 1192.53 990.538 1187.15C931.934 1171.04 873.327 1160.31 808.844 1160.31C761.951 1160.31 761.951 1144.2 785.405 1111.99C844.011 1015.36 943.658 983.146 1055.02 977.776C1142.93 972.404 1230.85 983.146 1336.36 1009.99C1201.55 1036.83 1101.91 1069.04 1055.02 1176.41Z" fill="#FF0000"/>
<path d="M1945.92 580.493C2145.2 591.234 2315.18 682.497 2485.15 763.032C2660.98 843.567 2836.82 913.36 3047.82 956.298C2901.29 773.773 2807.52 580.492 2672.7 408.694C2567.21 269.108 2444.12 145.635 2280 65.1005C2098.3 -26.1628 1916.61 -20.8038 1729.05 97.3123C1822.83 102.684 1893.18 81.214 1981.08 91.9426C1899.02 124.154 1822.83 151.007 1752.5 183.219C1676.3 215.43 1600.1 226.172 1518.05 204.689C1330.5 161.736 1154.66 193.948 996.402 290.594C709.21 467.748 521.654 730.82 263.758 956.298C480.625 902.616 674.046 843.565 844.012 746.919C1189.82 548.281 1564.94 559.022 1945.92 580.493Z" fill="#FF0000"/>
<path d="M1529.75 97.3104C1283.59 -95.9556 955.354 11.4189 732.632 306.69C955.354 102.682 1201.53 -4.69227 1529.75 97.3104Z" fill="#FF0000"/>
</svg>
